<svg width="68" height="68" viewBox="0 0 68 68" fill="none" xmlns="http://www.w3.org/2000/svg">
<path d="M35.5787 32.1104V24.3526C38.0628 24.4886 39.0153 25.6115 39.7301 25.6115C40.5128 25.6115 40.9548 24.5907 40.9548 24.0462C40.9548 22.6853 37.9944 21.9028 35.5786 21.8006V20.8477C35.5786 20.4734 35.1366 20.1333 34.6939 20.1333C34.1836 20.1333 33.8092 20.4734 33.8092 20.8477V21.8685C30.7467 22.1408 27.5143 23.6382 27.5143 27.9254C27.5143 32.2808 30.781 33.4035 33.8092 34.4584V43.5097C29.9302 43.3393 29.1135 40.7875 28.1609 40.7875C27.5143 40.7875 26.9017 41.6721 26.9017 42.3528C26.9017 43.7815 29.5558 46.1294 33.8092 46.1977V47.3204C33.8092 47.6946 34.1835 48.0348 34.6939 48.0348C35.1364 48.0348 35.5786 47.6946 35.5786 47.3204V46.0952C39.1176 45.619 41.5671 43.4071 41.5671 39.2561C41.5673 34.5947 38.4713 33.1654 35.5787 32.1104ZM33.9456 31.5323C31.938 30.7839 30.2366 30.0013 30.2366 27.6533C30.2366 25.4757 31.9039 24.5909 33.9456 24.387V31.5323ZM35.4427 43.4415V35.105C37.3146 35.8876 38.8456 36.9424 38.8456 39.5287C38.8456 41.7741 37.5867 43.1013 35.4427 43.4415Z" fill="#8EFB21"/>
<path d="M22.3321 46.7818C20.3083 46.7818 18.6619 48.4283 18.6619 50.4521C18.6617 52.476 20.3082 54.1225 22.3321 54.1225C24.3559 54.1225 26.0024 52.476 26.0024 50.4521C26.0024 48.4283 24.3559 46.7818 22.3321 46.7818ZM22.3321 52.0652C21.4427 52.0652 20.7191 51.3416 20.7191 50.4521C20.7191 49.5625 21.4426 48.8391 22.3321 48.8391C23.2216 48.8391 23.9451 49.5625 23.9451 50.4521C23.9451 51.3416 23.2216 52.0652 22.3321 52.0652Z" fill="#8EFB21"/>
<path d="M63.7921 34.016C63.7921 32.3378 62.9831 30.8451 61.7348 29.9069C62.9831 28.9689 63.7921 27.4761 63.7921 25.798C63.7921 24.1196 62.9831 22.6271 61.7348 21.6889C62.9829 20.7507 63.792 19.2579 63.792 17.5798C63.792 15.9015 62.983 14.4089 61.7347 13.4707C62.983 12.5326 63.792 11.0399 63.792 9.36167C63.792 6.85749 61.9908 4.7673 59.6162 4.3156C59.2215 1.87212 57.0982 0 54.5452 0C52.867 0 51.3743 0.808959 50.4361 2.05726C49.4978 0.808959 48.0052 0 46.327 0C44.6489 0 43.1561 0.808959 42.2181 2.05726C41.2798 0.808959 39.7872 0 38.109 0C36.4308 0 34.9381 0.808959 33.9999 2.05726C33.0616 0.808959 31.5691 0 29.8907 0C28.2126 0 26.7198 0.808959 25.7818 2.05726C24.8436 0.808959 23.351 0 21.6727 0C19.9945 0 18.5018 0.808959 17.5636 2.05726C16.6256 0.808959 15.1329 0 13.4547 0C10.9015 0 8.77835 1.87212 8.3835 4.31547C6.00909 4.7673 4.20789 6.85736 4.20789 9.36154C4.20789 11.0398 5.01685 12.5324 6.26515 13.4706C5.01685 14.4088 4.20789 15.9015 4.20789 17.5797C4.20789 19.2579 5.01685 20.7506 6.26515 21.6888C5.01685 22.6268 4.20789 24.1196 4.20789 25.7977C4.20789 27.4761 5.01685 28.9686 6.26515 29.9068C5.01685 30.845 4.20789 32.3377 4.20789 34.0159C4.20789 35.6942 5.01685 37.1868 6.26515 38.125C5.01685 39.0631 4.20789 40.5558 4.20789 42.234C4.20789 43.9122 5.01685 45.4049 6.26515 46.3431C5.01685 47.2812 4.20789 48.774 4.20789 50.4521C4.20789 52.1303 5.01685 53.6229 6.26515 54.5611C5.01685 55.4993 4.20789 56.992 4.20789 58.6702C4.20789 61.1764 6.01201 63.2678 8.38948 63.7172C8.79801 66.1445 10.9132 67.9997 13.4547 67.9997C15.1328 67.9997 16.6256 67.1908 17.5638 65.9425C18.5019 67.1908 19.9946 67.9997 21.6728 67.9997C23.351 67.9997 24.8437 67.1908 25.7819 65.9425C26.7201 67.1908 28.2128 67.9997 29.8909 67.9997C31.5691 67.9997 33.0617 67.1908 33.9999 65.9425C34.9381 67.1908 36.4308 67.9997 38.109 67.9997C39.7872 67.9997 41.2799 67.1908 42.2181 65.9425C43.1561 67.1908 44.6489 67.9997 46.327 67.9997C48.0052 67.9997 49.4979 67.1908 50.4361 65.9425C51.3743 67.1908 52.867 67.9997 54.5452 67.9997C57.0867 67.9997 59.2019 66.1443 59.6104 63.7172C61.9879 63.2678 63.792 61.1762 63.792 58.6702C63.792 56.992 62.983 55.4993 61.7347 54.5611C62.983 53.6229 63.792 52.1303 63.792 50.4521C63.792 48.774 62.983 47.2812 61.7347 46.3431C62.983 45.4049 63.792 43.9122 63.792 42.234C63.792 40.5558 62.983 39.0631 61.7347 38.125C62.9831 37.1869 63.7921 35.6942 63.7921 34.016ZM8.31696 61.5735C7.12272 61.149 6.26515 60.008 6.26515 58.6702C6.26515 57.3324 7.12285 56.1914 8.31696 55.7671V61.5735ZM8.31696 53.3552C7.12285 52.9309 6.26515 51.7899 6.26515 50.4521C6.26515 49.1142 7.12272 47.9734 8.31696 47.5489V53.3552ZM8.31696 45.1373C7.12285 44.713 6.26515 43.572 6.26515 42.2342C6.26515 40.8963 7.12272 39.7552 8.31696 39.3309V45.1373ZM8.31696 36.9192C7.12285 36.4948 6.26515 35.3538 6.26515 34.016C6.26515 32.6782 7.12272 31.5371 8.31696 31.1127V36.9192ZM8.31696 28.701C7.12285 28.2767 6.26515 27.1357 6.26515 25.7978C6.26515 24.46 7.12272 23.319 8.31696 22.8947V28.701ZM8.31696 20.483C7.12285 20.0586 6.26515 18.9176 6.26515 17.5798C6.26515 16.242 7.12272 15.1009 8.31696 14.6765V20.483ZM8.31696 12.2647C7.12285 11.8403 6.26515 10.6994 6.26515 9.36154C6.26515 8.02372 7.12272 6.88273 8.31696 6.45826V12.2647ZM54.5452 2.05726C55.9258 2.05726 57.0969 2.97008 57.4872 4.22396H51.603C51.9933 2.97008 53.1646 2.05726 54.5452 2.05726ZM46.327 2.05726C47.7076 2.05726 48.8787 2.97008 49.2691 4.22396H43.385C43.7752 2.97008 44.9464 2.05726 46.327 2.05726ZM38.109 2.05726C39.4896 2.05726 40.6607 2.97008 41.0511 4.22396H35.1668C35.5572 2.97008 36.7284 2.05726 38.109 2.05726ZM29.8907 2.05726C31.2713 2.05726 32.4424 2.97008 32.8328 4.22396H26.9487C27.339 2.97008 28.5103 2.05726 29.8907 2.05726ZM21.6727 2.05726C23.0533 2.05726 24.2244 2.97008 24.6148 4.22396H18.7305C19.121 2.97008 20.2922 2.05726 21.6727 2.05726ZM13.4547 2.05726C14.8353 2.05726 16.0064 2.97008 16.3966 4.22396H10.5126C10.9028 2.97008 12.0742 2.05726 13.4547 2.05726ZM10.3742 7.64839L14.4465 11.5171V29.26C14.4465 29.8282 14.9071 30.2886 15.4751 30.2886C16.0432 30.2886 16.5038 29.8282 16.5038 29.26V19.5914L20.7907 21.5476C21.1092 21.693 21.447 21.7658 21.7859 21.7658C22.0804 21.7658 22.3758 21.7107 22.6596 21.6001C23.2692 21.3621 23.7448 20.8989 23.9989 20.2958L27.4496 12.1041H33.5538C34.1219 12.1041 34.5824 11.6436 34.5824 11.0755C34.5824 10.5073 34.1219 10.0468 33.5538 10.0468H26.7706C26.7675 10.0468 26.7643 10.0468 26.7614 10.0468H15.8857L11.9218 6.28109H56.0778L52.1137 10.0468H38.8453C38.2771 10.0468 37.8167 10.5073 37.8167 11.0755C37.8167 11.6436 38.2771 12.1041 38.8453 12.1041H51.4958V23.6373C51.0154 22.1696 49.6337 21.1063 48.0075 21.1063C45.9837 21.1063 44.3372 22.7527 44.3372 24.7767C44.3372 26.8004 45.9837 28.4469 48.0075 28.4469C49.6337 28.4469 51.0153 27.3835 51.4958 25.9159V43.3361L46.2512 45.294C45.638 45.5229 45.1556 45.9789 44.8928 46.5785C44.6298 47.1778 44.6211 47.8418 44.8678 48.4476L47.9009 55.8962H16.5038V34.1389C16.5038 33.5707 16.0432 33.1102 15.4751 33.1102C14.9071 33.1102 14.4465 33.5707 14.4465 34.1389V56.4848L10.3742 60.3747V7.64839ZM16.5038 17.3301V12.1041H25.2175L22.1031 19.4971C22.0541 19.6136 21.9624 19.6639 21.9118 19.6834C21.8612 19.7034 21.7597 19.7285 21.6447 19.6759L16.5038 17.3301ZM49.6208 24.7765C49.6208 25.666 48.8973 26.3895 48.0078 26.3895C47.1182 26.3895 46.3948 25.6661 46.3948 24.7765C46.3948 23.8869 47.1182 23.1634 48.0078 23.1634C48.8973 23.1634 49.6208 23.8871 49.6208 24.7765ZM51.4959 45.5318V55.8959H50.1221L46.7733 47.6715C46.7256 47.5546 46.7551 47.4541 46.7767 47.4045C46.7984 47.355 46.8526 47.2651 46.9708 47.221L51.4959 45.5318ZM13.4547 65.9426C12.0859 65.9426 10.9234 65.0451 10.5232 63.8079H16.386C15.9858 65.0452 14.8233 65.9426 13.4547 65.9426ZM21.6727 65.9426C20.3039 65.9426 19.1416 65.0451 18.7413 63.8079H24.604C24.204 65.0452 23.0415 65.9426 21.6727 65.9426ZM29.8907 65.9426C28.522 65.9426 27.3596 65.0451 26.9594 63.8079H32.8222C32.422 65.0452 31.2595 65.9426 29.8907 65.9426ZM38.109 65.9426C36.7402 65.9426 35.5779 65.0451 35.1776 63.8079H41.0402C40.6401 65.0452 39.4776 65.9426 38.109 65.9426ZM46.327 65.9426C44.9583 65.9426 43.796 65.0451 43.3957 63.8079H49.2582C48.8582 65.0452 47.6958 65.9426 46.327 65.9426ZM11.9117 61.7508L15.8875 57.9532H49.4271C49.4283 57.9532 49.4297 57.9534 49.4307 57.9534C49.4326 57.9534 49.4344 57.9532 49.4363 57.9532H52.1122L56.0881 61.7508H11.9117ZM54.5452 65.9426C53.1764 65.9426 52.0141 65.0451 51.6138 63.8079H57.4764C57.0763 65.0452 55.9139 65.9426 54.5452 65.9426ZM57.6256 60.3743L53.5533 56.4844V11.5171L57.6256 7.64839V60.3743ZM59.6829 6.45826C60.877 6.88273 61.7347 8.02359 61.7347 9.36154C61.7347 10.6994 60.877 11.8403 59.6829 12.2647V6.45826ZM59.6829 61.5735V55.7671C60.877 56.1914 61.7347 57.3324 61.7347 58.6702C61.7347 60.0082 60.877 61.149 59.6829 61.5735ZM59.6829 53.3553V47.549C60.877 47.9734 61.7347 49.1142 61.7347 50.4522C61.7347 51.7903 60.877 52.9309 59.6829 53.3553ZM59.6829 45.1373V39.3309C60.877 39.7552 61.7347 40.8962 61.7347 42.234C61.7347 43.5718 60.877 44.713 59.6829 45.1373ZM59.6829 36.9192V31.1127C60.877 31.5371 61.7347 32.6781 61.7347 34.0159C61.7347 35.3537 60.877 36.4948 59.6829 36.9192ZM59.6829 28.701V22.8947C60.877 23.319 61.7347 24.46 61.7347 25.7978C61.7347 27.1357 60.877 28.2767 59.6829 28.701ZM59.6829 20.483V14.6765C60.877 15.1009 61.7347 16.2419 61.7347 17.5797C61.7347 18.9175 60.877 20.0586 59.6829 20.483Z" fill="#8EFB21"/>
</svg>
