<svg width="88" height="88" viewBox="0 0 88 88" fill="none" xmlns="http://www.w3.org/2000/svg">
<g clip-path="url(#clip0_44_21127)">
<path d="M73.0028 41.495C77.5726 41.495 81.2771 37.7905 81.2771 33.2207C81.2771 28.6509 77.5726 24.9464 73.0028 24.9464C68.433 24.9464 64.7285 28.6509 64.7285 33.2207C64.7285 37.7905 68.433 41.495 73.0028 41.495Z" fill="#8EFB21"/>
<path d="M14.9972 41.495C19.567 41.495 23.2715 37.7905 23.2715 33.2207C23.2715 28.6509 19.567 24.9464 14.9972 24.9464C10.4274 24.9464 6.72287 28.6509 6.72287 33.2207C6.72287 37.7905 10.4274 41.495 14.9972 41.495Z" fill="#8EFB21"/>
<path d="M73.0028 47.119C69.2696 47.119 65.8578 48.4854 63.234 50.743C66.2104 54.0053 68.2701 57.9014 69.285 62.1162H88C88 53.8336 81.2856 47.119 73.0028 47.119Z" fill="#8EFB21"/>
<path d="M43.9999 47.8664C32.7406 47.8664 23.6131 56.9939 23.6131 68.2532H64.3867C64.3867 56.9939 55.2593 47.8664 43.9999 47.8664Z" fill="#8EFB21"/>
<path d="M14.9972 47.119C6.71443 47.119 0 53.8334 0 62.1162H18.715C19.7298 57.9014 21.7896 54.0053 24.766 50.743C22.1422 48.4856 18.7304 47.119 14.9972 47.119Z" fill="#8EFB21"/>
<path d="M43.9999 42.2424C50.212 42.2424 55.2478 37.2066 55.2478 30.9945C55.2478 24.7825 50.212 19.7466 43.9999 19.7466C37.7879 19.7466 32.752 24.7825 32.752 30.9945C32.752 37.2066 37.7879 42.2424 43.9999 42.2424Z" fill="#8EFB21"/>
</g>
<defs>
<clipPath id="clip0_44_21127">
<rect width="88" height="88" fill="white"/>
</clipPath>
</defs>
</svg>
