<svg width="68" height="68" viewBox="0 0 68 68" fill="none" xmlns="http://www.w3.org/2000/svg">
<g clip-path="url(#clip0_44_21144)">
<path d="M64.7097 41.6774H63.6129V37.2903C63.6129 34.8708 61.6453 32.9032 59.2258 32.9032H46.0645V30.7097H43.871V32.9032H39.4839C37.0644 32.9032 35.0968 34.8708 35.0968 37.2903V41.6774H34C32.1859 41.6774 30.7097 43.1537 30.7097 44.9677V65.8064H2.19355V6.58065H12.4835L14.677 10.9677H19.7419V13.1613H4.3871V35.0968H26.3226V26.3094C28.1476 26.2381 29.6129 24.7421 29.6129 22.8995C29.6129 21.9848 29.2575 21.125 28.6105 20.479L26.3226 18.1911V10.9677H31.3875L33.581 6.58065H43.871V28.5161H46.0645V4.3871H34.6778L34.793 4.15568C34.9915 3.75865 35.0968 3.31445 35.0968 2.87136C35.0968 1.28761 33.8081 0 32.2254 0H13.8391C12.2565 0 10.9677 1.28761 10.9677 2.87136C10.9677 3.31445 11.073 3.75865 11.2705 4.15568L11.3867 4.3871H0V68H30.7097H31.8065H68V44.9677C68 43.1537 66.5237 41.6774 64.7097 41.6774ZM24.129 32.9032H6.58065V15.3548H19.7419V18.1911L17.453 20.479C16.807 21.1261 16.4516 21.9848 16.4516 22.8995C16.4516 24.7871 17.9871 26.3226 19.8746 26.3226H24.129V32.9032ZM27.0596 22.0298C27.2921 22.2623 27.4194 22.5705 27.4194 22.8995C27.4194 23.5774 26.8677 24.129 26.1899 24.129H19.8746C19.1968 24.129 18.6452 23.5774 18.6452 22.8995C18.6452 22.5705 18.7735 22.2612 19.0049 22.0298L21.9355 19.0992V10.9677H24.129V19.0992L27.0596 22.0298ZM13.8391 2.19355H32.2254C32.5994 2.19355 32.9032 2.49735 32.9032 2.87136C32.9032 2.97555 32.8791 3.08084 32.8319 3.17406L30.0319 8.77419H16.0326L13.2326 3.17516C13.1854 3.08084 13.1613 2.97555 13.1613 2.87136C13.1613 2.49735 13.4651 2.19355 13.8391 2.19355ZM37.2903 37.2903C37.2903 36.0806 38.2741 35.0968 39.4839 35.0968H59.2258C60.4356 35.0968 61.4194 36.0806 61.4194 37.2903V41.6774H59.2258V37.2903H39.4839V41.6774H37.2903V37.2903ZM57.0323 39.4839V41.6774H41.6774V39.4839H57.0323ZM65.8064 65.8064H32.9032V55.9355H38.3871V58.129H44.9677V55.9355H53.7419V58.129H60.3226V55.9355H65.8064V65.8064ZM40.5806 55.9355V53.7419H42.7742V55.9355H40.5806ZM55.9355 55.9355V53.7419H58.129V55.9355H55.9355ZM65.8064 53.7419H60.3226V51.5484H53.7419V53.7419H44.9677V51.5484H38.3871V53.7419H32.9032V44.9677C32.9032 44.3634 33.3946 43.871 34 43.871H64.7097C65.3151 43.871 65.8064 44.3634 65.8064 44.9677V53.7419Z" fill="#8EFB21"/>
<path d="M41.6774 13.1613H31.8064V15.3549H41.6774V13.1613Z" fill="#8EFB21"/>
<path d="M41.6774 17.5484H31.8064V19.7419H41.6774V17.5484Z" fill="#8EFB21"/>
<path d="M41.6774 21.9355H31.8064V24.129H41.6774V21.9355Z" fill="#8EFB21"/>
<path d="M41.6774 26.3226H31.8064V28.5161H41.6774V26.3226Z" fill="#8EFB21"/>
<path d="M26.3226 38.3871H4.38708V40.5806H26.3226V38.3871Z" fill="#8EFB21"/>
<path d="M26.3226 42.7742H4.38708V44.9677H26.3226V42.7742Z" fill="#8EFB21"/>
<path d="M26.3226 47.1613H16.4517V49.3549H26.3226V47.1613Z" fill="#8EFB21"/>
<path d="M14.2581 47.1613H4.38708V49.3549H14.2581V47.1613Z" fill="#8EFB21"/>
<path d="M26.3226 55.9355H16.4517V58.129H26.3226V55.9355Z" fill="#8EFB21"/>
<path d="M14.2581 55.9355H4.38708V58.129H14.2581V55.9355Z" fill="#8EFB21"/>
<path d="M26.3226 51.5484H4.38708V53.7419H26.3226V51.5484Z" fill="#8EFB21"/>
<path d="M26.3226 60.3226H4.38708V62.5161H26.3226V60.3226Z" fill="#8EFB21"/>
</g>
<defs>
<clipPath id="clip0_44_21144">
<rect width="68" height="68" fill="white"/>
</clipPath>
</defs>
</svg>
