<svg width="83" height="34" viewBox="0 0 83 34" fill="none" xmlns="http://www.w3.org/2000/svg">
<path d="M44.56 13.18C44.7067 13.1533 44.7833 13.14 44.79 13.14C44.85 13.14 44.8933 13.16 44.92 13.2C44.96 13.24 45.0033 13.26 45.05 13.26C45.1033 13.26 45.1633 13.3067 45.23 13.4C45.2433 13.42 45.6367 14.1067 46.41 15.46C47.1833 16.8133 47.58 17.5033 47.6 17.53C47.6467 17.6233 47.6767 17.67 47.69 17.67C47.71 17.67 47.76 17.45 47.84 17.01C48.1533 15.29 48.35 14.28 48.43 13.98C48.4633 13.8533 48.5033 13.7767 48.55 13.75C48.6033 13.7167 48.7433 13.68 48.97 13.64C49.0833 13.62 49.1633 13.61 49.21 13.61C49.2833 13.61 49.37 13.6333 49.47 13.68C49.5633 13.72 49.6233 13.7567 49.65 13.79C49.6767 13.8167 49.7033 13.88 49.73 13.98C49.9233 14.6867 50.1133 15.44 50.3 16.24C50.7267 18.0333 50.96 18.9467 51 18.98C51.1467 19.0933 51.22 19.27 51.22 19.51C51.22 19.5167 51.2167 19.53 51.21 19.55C51.21 19.57 51.21 19.5867 51.21 19.6C51.2033 19.7133 51.1933 19.7933 51.18 19.84C51.1667 19.8867 51.1367 19.9533 51.09 20.04C51.05 20.1333 51.0167 20.2067 50.99 20.26C50.9033 20.44 50.82 20.53 50.74 20.53C50.6733 20.53 50.58 20.47 50.46 20.35C50.0733 19.9767 49.7967 19.4533 49.63 18.78L49.14 16.72C49.0467 17.18 48.95 17.6867 48.85 18.24C48.71 19 48.6133 19.49 48.56 19.71C48.5067 19.93 48.4333 20.13 48.34 20.31C48.2467 20.4833 48.1567 20.57 48.07 20.57C47.9967 20.57 47.9033 20.5233 47.79 20.43C47.6833 20.33 47.5667 20.15 47.44 19.89C47.12 19.21 46.7 18.4233 46.18 17.53C45.8533 16.9567 45.68 16.67 45.66 16.67C45.6533 16.67 45.65 16.68 45.65 16.7V16.77C45.7367 17.53 45.78 18.4867 45.78 19.64C45.78 20.0133 45.77 20.23 45.75 20.29C45.73 20.3233 45.71 20.34 45.69 20.34C45.6367 20.34 45.57 20.2633 45.49 20.11C45.43 19.9967 45.29 19.3633 45.07 18.21C44.73 16.3833 44.4633 15.1567 44.27 14.53C44.0967 13.95 44.01 13.62 44.01 13.54C44.01 13.5 44.02 13.46 44.04 13.42C44.0667 13.36 44.1067 13.3167 44.16 13.29C44.2133 13.2633 44.3467 13.2267 44.56 13.18ZM55.997 15.44C55.817 15.36 55.5737 15.32 55.267 15.32C55.0137 15.32 54.7704 15.3533 54.537 15.42C54.177 15.5333 53.807 15.7033 53.427 15.93C53.1804 16.0833 52.997 16.1667 52.877 16.18C52.8037 16.1933 52.747 16.2167 52.707 16.25C52.667 16.2833 52.6104 16.3567 52.537 16.47C52.2304 16.9367 52.077 17.3133 52.077 17.6C52.077 17.8267 52.1737 18.0433 52.367 18.25C52.547 18.43 52.8537 18.52 53.287 18.52C53.5137 18.52 53.7204 18.49 53.907 18.43C54.5137 18.2233 55.027 17.9 55.447 17.46C55.8737 17.0133 56.1337 16.5267 56.227 16C56.247 15.9 56.257 15.82 56.257 15.76C56.257 15.6267 56.1704 15.52 55.997 15.44ZM54.867 13.95C55.0537 13.9167 55.2204 13.9 55.367 13.9C55.7737 13.9 56.177 14.01 56.577 14.23C57.017 14.4767 57.287 14.8233 57.387 15.27C57.4137 15.3967 57.427 15.55 57.427 15.73C57.427 16.2167 57.307 16.73 57.067 17.27C56.8337 17.8033 56.527 18.2467 56.147 18.6C55.4004 19.3067 54.5104 19.68 53.477 19.72C53.4504 19.72 53.4104 19.7233 53.357 19.73C53.3104 19.73 53.277 19.73 53.257 19.73C52.8037 19.73 52.4237 19.6133 52.117 19.38C51.8237 19.1667 51.5904 18.88 51.417 18.52C51.2837 18.24 51.217 17.9933 51.217 17.78C51.217 17.6133 51.2504 17.4333 51.317 17.24C51.457 16.84 51.667 16.4667 51.947 16.12C52.127 15.9067 52.2337 15.7367 52.267 15.61C52.347 15.3367 52.4837 15.1133 52.677 14.94C53.2504 14.4333 53.9804 14.1033 54.867 13.95ZM62.0275 11.69C62.1475 11.65 62.2508 11.63 62.3375 11.63C62.4308 11.63 62.5175 11.65 62.5975 11.69C62.6575 11.7233 62.6942 11.75 62.7075 11.77C62.7208 11.79 62.7275 11.8333 62.7275 11.9V12.04C62.7208 12.1333 62.6775 12.27 62.5975 12.45C62.5242 12.63 62.4675 12.7233 62.4275 12.73C62.1275 12.8033 61.7242 12.9633 61.2175 13.21C60.7108 13.45 60.4342 13.57 60.3875 13.57C60.3675 13.57 60.3442 13.5567 60.3175 13.53C60.2708 13.4833 60.2475 13.4367 60.2475 13.39C60.2475 13.2967 60.3808 13.1167 60.6475 12.85C61.3275 12.1433 61.7875 11.7567 62.0275 11.69ZM59.8275 12.07C59.9542 12.03 60.0708 12.01 60.1775 12.01C60.2842 12.01 60.3775 12.03 60.4575 12.07C60.5175 12.0967 60.5542 12.1233 60.5675 12.15C60.5808 12.17 60.5875 12.22 60.5875 12.3C60.5875 12.36 60.5808 12.42 60.5675 12.48C60.5542 12.5333 60.5375 12.58 60.5175 12.62C60.5042 12.66 60.4842 12.71 60.4575 12.77C60.4308 12.83 60.4108 12.8767 60.3975 12.91C60.3508 13.0367 60.2675 13.1267 60.1475 13.18C59.9875 13.26 59.6642 13.4767 59.1775 13.83C58.5908 14.2433 58.2675 14.4567 58.2075 14.47C58.1742 14.47 58.1408 14.4467 58.1075 14.4C58.0275 14.3067 57.9875 14.2133 57.9875 14.12C57.9875 14.0667 57.9975 14.0267 58.0175 14C58.0508 13.94 58.2108 13.74 58.4975 13.4C58.7842 13.06 59.0408 12.7667 59.2675 12.52C59.5008 12.2667 59.6875 12.1167 59.8275 12.07ZM61.2175 14.96C61.2175 14.9533 61.2075 14.95 61.1875 14.95C61.0342 14.95 60.8142 15.0167 60.5275 15.15C60.1608 15.31 59.7575 15.6 59.3175 16.02C58.8775 16.4333 58.6575 16.7333 58.6575 16.92C58.6575 16.9533 58.6742 17.0167 58.7075 17.11C58.7475 17.1967 58.7808 17.2567 58.8075 17.29H58.8175C58.9108 17.29 59.1708 17.14 59.5975 16.84C59.7908 16.7067 60.0042 16.53 60.2375 16.31C60.4775 16.0833 60.6575 15.89 60.7775 15.73C60.8642 15.6233 60.9575 15.4767 61.0575 15.29C61.1642 15.1033 61.2175 14.9933 61.2175 14.96ZM60.9075 13.67C61.0075 13.65 61.1475 13.64 61.3275 13.64C61.4808 13.64 61.5875 13.6467 61.6475 13.66C61.7075 13.6733 61.7942 13.7133 61.9075 13.78C62.0808 13.8733 62.1942 13.97 62.2475 14.07C62.3008 14.17 62.3275 14.3333 62.3275 14.56C62.3208 14.8667 62.2408 15.19 62.0875 15.53C61.9408 15.87 61.7442 16.1733 61.4975 16.44C61.0775 16.9 60.5842 17.25 60.0175 17.49C59.8375 17.5633 59.7475 17.61 59.7475 17.63L59.7975 17.65C59.8175 17.6567 59.8642 17.66 59.9375 17.66C60.3375 17.66 60.7308 17.5933 61.1175 17.46C61.3708 17.3733 61.5842 17.28 61.7575 17.18C62.0375 17.0267 62.2242 16.93 62.3175 16.89C62.4108 16.85 62.5142 16.8233 62.6275 16.81C62.6608 16.8033 62.7075 16.8 62.7675 16.8C62.8408 16.8 62.9242 16.82 63.0175 16.86C63.1042 16.9 63.1542 16.9333 63.1675 16.96C63.1875 16.98 63.1975 17.0467 63.1975 17.16C63.1975 17.3067 63.1542 17.49 63.0675 17.71C62.9875 17.9233 62.9008 18.0767 62.8075 18.17C62.6475 18.3433 62.3375 18.5133 61.8775 18.68C61.1975 18.9333 60.5175 19.06 59.8375 19.06C59.3442 19.06 58.9642 18.99 58.6975 18.85C58.5908 18.7967 58.4608 18.7133 58.3075 18.6C58.1608 18.48 58.0575 18.3833 57.9975 18.31C57.9042 18.1967 57.8008 18.02 57.6875 17.78C57.5742 17.5333 57.5042 17.3467 57.4775 17.22C57.4575 17.1267 57.4475 17.03 57.4475 16.93C57.4475 16.2967 57.7942 15.6333 58.4875 14.94C58.8342 14.5933 59.1908 14.3233 59.5575 14.13C59.9308 13.9367 60.3808 13.7833 60.9075 13.67Z" fill="white"/>
<path d="M28.5 25.89C28.6733 25.8367 28.8233 25.81 28.95 25.81C29.2033 25.81 29.42 25.91 29.6 26.11C29.68 26.2167 29.9633 26.6733 30.45 27.48C31.7833 29.7333 32.5367 30.8967 32.71 30.97C32.7833 31.0033 32.82 31.0567 32.82 31.13C32.82 31.19 32.8167 31.2433 32.81 31.29C32.79 31.4767 32.72 31.69 32.6 31.93C32.48 32.19 32.37 32.32 32.27 32.32C32.2033 32.32 32.1167 32.2767 32.01 32.19C31.7633 31.99 30.9267 30.69 29.5 28.29L29.06 27.58C29.04 27.6 28.9833 27.8367 28.89 28.29C28.7833 28.7967 28.62 29.49 28.4 30.37C28.2133 31.1367 28.0633 31.6667 27.95 31.96C27.8433 32.2533 27.73 32.4267 27.61 32.48C27.5233 32.52 27.4333 32.5 27.34 32.42C27.18 32.2933 27.0367 32.0633 26.91 31.73C26.7833 31.39 26.6467 30.8767 26.5 30.19C26.22 28.83 26.06 27.7233 26.02 26.87C26.0133 26.7567 26.01 26.6233 26.01 26.47C26.01 26.3233 26.0233 26.2333 26.05 26.2C26.0767 26.16 26.1333 26.14 26.22 26.14H26.25C26.3433 26.14 26.4167 26.2233 26.47 26.39C26.53 26.55 26.6967 27.14 26.97 28.16C26.9767 28.1733 26.98 28.1833 26.98 28.19C26.9867 28.1967 26.99 28.2067 26.99 28.22C26.9967 28.2333 27 28.2467 27 28.26C27.2133 29.04 27.3333 29.43 27.36 29.43C27.38 29.43 27.49 28.97 27.69 28.05C27.9167 27.0433 28.0633 26.4433 28.13 26.25C28.2033 26.0567 28.3267 25.9367 28.5 25.89ZM36.4864 25.77C36.5864 25.75 36.7297 25.74 36.9164 25.74H37.0164C37.2831 25.7467 37.5197 25.81 37.7264 25.93C37.9331 26.05 38.0597 26.19 38.1064 26.35C38.1331 26.4367 38.1464 26.54 38.1464 26.66C38.1464 26.98 38.0497 27.2767 37.8564 27.55C37.6697 27.8167 37.4564 27.95 37.2164 27.95H37.0464L37.1964 27.78C37.3964 27.5533 37.5131 27.3033 37.5464 27.03C37.5464 27.0167 37.5464 26.9967 37.5464 26.97C37.5531 26.9433 37.5564 26.9267 37.5564 26.92C37.5564 26.8467 37.5297 26.8033 37.4764 26.79C37.4231 26.7767 37.2964 26.77 37.0964 26.77C36.6964 26.77 36.2431 26.92 35.7364 27.22C35.4031 27.4133 35.0597 27.7167 34.7064 28.13C34.3531 28.5367 34.1331 28.88 34.0464 29.16C33.9997 29.32 33.9764 29.47 33.9764 29.61C33.9764 29.9633 34.0764 30.2867 34.2764 30.58C34.5831 31.0267 35.0897 31.25 35.7964 31.25C35.9831 31.25 36.1097 31.2433 36.1764 31.23C36.2497 31.2167 36.3531 31.1767 36.4864 31.11C36.8197 30.95 37.0797 30.76 37.2664 30.54C37.4597 30.3133 37.6564 29.97 37.8564 29.51C38.0164 29.1433 38.1264 28.93 38.1864 28.87C38.2331 28.8233 38.3697 28.7767 38.5964 28.73C38.7364 28.6967 38.8431 28.68 38.9164 28.68C38.9631 28.68 38.9997 28.6933 39.0264 28.72C39.0731 28.7667 39.1197 28.79 39.1664 28.79C39.2531 28.79 39.2964 28.8767 39.2964 29.05C39.2964 29.0833 39.2897 29.1467 39.2764 29.24C39.2364 29.46 39.0897 29.8367 38.8364 30.37C38.5897 30.9033 38.3831 31.2833 38.2164 31.51C37.9697 31.8433 37.6397 32.1067 37.2264 32.3C36.8197 32.5 36.3697 32.6133 35.8764 32.64C35.8564 32.64 35.8231 32.64 35.7764 32.64C35.7364 32.6467 35.7064 32.65 35.6864 32.65C34.9064 32.65 34.2264 32.3467 33.6464 31.74C33.5464 31.6333 33.4164 31.44 33.2564 31.16C33.0964 30.88 32.9897 30.6567 32.9364 30.49C32.8631 30.27 32.8264 30.0167 32.8264 29.73C32.8264 28.9633 33.1097 28.2067 33.6764 27.46C34.3631 26.5533 35.2997 25.99 36.4864 25.77ZM43.1108 24.88C43.2974 24.8267 43.4341 24.8 43.5208 24.8C43.6274 24.8 43.7408 24.8233 43.8608 24.87C43.9408 24.9033 43.9874 24.9333 44.0008 24.96C44.0141 24.9867 44.0208 25.0567 44.0208 25.17C44.0208 25.3967 43.8274 25.99 43.4408 26.95C43.1608 27.6567 42.9774 28.14 42.8908 28.4L42.7208 28.88L43.0408 29.21C43.2474 29.41 43.6041 29.7133 44.1108 30.12C44.6174 30.5267 44.9208 30.75 45.0208 30.79L45.1708 30.85L45.1408 31.13C45.1341 31.23 45.1241 31.3033 45.1108 31.35C45.1041 31.3967 45.0874 31.4467 45.0608 31.5C45.0341 31.5533 45.0108 31.61 44.9908 31.67C44.9041 31.9433 44.7841 32.08 44.6308 32.08C44.5774 32.08 44.5241 32.0667 44.4708 32.04C44.3841 31.9933 44.1341 31.81 43.7208 31.49C43.3141 31.17 42.9608 30.8833 42.6608 30.63L42.2008 30.23L42.0908 30.51C41.8241 31.1833 41.5941 31.52 41.4008 31.52C41.2208 31.52 41.0341 31.3467 40.8408 31C40.7074 30.7667 40.4874 30.1067 40.1808 29.02C40.0808 28.6733 39.9474 28.2133 39.7808 27.64C39.6141 27.06 39.5174 26.7233 39.4908 26.63C39.3708 26.2433 39.3108 26 39.3108 25.9C39.3108 25.88 39.3141 25.8667 39.3208 25.86C39.3474 25.8267 39.3974 25.81 39.4708 25.81C39.5641 25.81 39.6374 25.8367 39.6908 25.89C39.8841 26.0833 40.3974 27.2533 41.2308 29.4C41.2308 29.4133 41.2374 29.42 41.2508 29.42C41.2708 29.42 41.4141 29 41.6808 28.16C41.7474 27.96 41.9308 27.4667 42.2308 26.68C42.5308 25.8933 42.7274 25.39 42.8208 25.17C42.8741 25.0567 42.9141 24.9867 42.9408 24.96C42.9741 24.9267 43.0308 24.9 43.1108 24.88ZM48.9899 26.05C49.1499 26.0033 49.3033 25.98 49.4499 25.98C49.5433 25.98 49.5999 25.9933 49.6199 26.02C49.6333 26.0467 49.6666 26.06 49.7199 26.06C49.8266 26.06 49.9233 26.1633 50.0099 26.37C50.0966 26.57 50.2033 27.02 50.3299 27.72C50.3766 28.0467 50.3999 28.3967 50.3999 28.77C50.3999 29.15 50.3766 29.4567 50.3299 29.69C50.1633 30.4033 49.8966 30.95 49.5299 31.33C49.1299 31.7367 48.5966 31.94 47.9299 31.94C47.2633 31.94 46.7033 31.74 46.2499 31.34C46.1233 31.2333 45.9899 31.06 45.8499 30.82C45.7166 30.58 45.6399 30.3933 45.6199 30.26C45.6199 30.2467 45.6166 30.23 45.6099 30.21C45.6099 30.19 45.6099 30.1767 45.6099 30.17C45.6099 30.0767 45.6366 30.0033 45.6899 29.95C45.7499 29.8967 45.8533 29.8533 45.9999 29.82C46.1733 29.78 46.2999 29.76 46.3799 29.76C46.4466 29.76 46.5133 29.7767 46.5799 29.81C46.5999 29.8233 46.6233 29.8367 46.6499 29.85C46.6833 29.8633 46.7066 29.8733 46.7199 29.88C46.7399 29.8867 46.7566 29.9 46.7699 29.92C46.7899 29.94 46.8033 29.9667 46.8099 30C46.8166 30.0667 46.8699 30.1433 46.9699 30.23C47.0766 30.31 47.1866 30.37 47.2999 30.41C47.4466 30.4567 47.6366 30.4867 47.8699 30.5C47.8899 30.5 47.9199 30.5033 47.9599 30.51C47.9999 30.51 48.0266 30.51 48.0399 30.51C48.1866 30.51 48.3099 30.4867 48.4099 30.44C48.5099 30.3933 48.6233 30.3033 48.7499 30.17C49.0566 29.8633 49.2099 29.41 49.2099 28.81C49.2099 28.6767 49.2066 28.5733 49.1999 28.5C49.1733 28.1867 49.1566 28.03 49.1499 28.03C49.1033 28.03 49.0266 28.1167 48.9199 28.29C48.2866 29.2033 47.6399 29.66 46.9799 29.66C46.8333 29.66 46.7066 29.6433 46.5999 29.61C46.4666 29.57 46.3199 29.4933 46.1599 29.38C46.0066 29.2667 45.8766 29.1467 45.7699 29.02C45.6833 28.9067 45.5833 28.74 45.4699 28.52C45.3633 28.3 45.2899 28.1133 45.2499 27.96C45.2033 27.7933 45.1799 27.5933 45.1799 27.36C45.1799 26.94 45.2466 26.6567 45.3799 26.51C45.4199 26.4567 45.4866 26.43 45.5799 26.43C45.6799 26.43 45.7433 26.46 45.7699 26.52C45.7966 26.5733 45.8066 26.61 45.7999 26.63C45.7999 26.6433 45.7733 26.65 45.7199 26.65C45.6666 26.65 45.6399 26.68 45.6399 26.74C45.6399 26.7467 45.6466 26.83 45.6599 26.99C45.6866 27.39 45.8099 27.7533 46.0299 28.08C46.2633 28.4267 46.5099 28.6 46.7699 28.6C46.8633 28.6 46.9533 28.5767 47.0399 28.53C47.1666 28.4633 47.3299 28.3267 47.5299 28.12C47.7366 27.9133 47.8999 27.7167 48.0199 27.53C48.1199 27.37 48.2733 27.08 48.4799 26.66L48.7499 26.11L48.9899 26.05ZM54.0743 25.77C54.1743 25.75 54.3176 25.74 54.5043 25.74H54.6043C54.871 25.7467 55.1076 25.81 55.3143 25.93C55.521 26.05 55.6476 26.19 55.6943 26.35C55.721 26.4367 55.7343 26.54 55.7343 26.66C55.7343 26.98 55.6376 27.2767 55.4443 27.55C55.2576 27.8167 55.0443 27.95 54.8043 27.95H54.6343L54.7843 27.78C54.9843 27.5533 55.101 27.3033 55.1343 27.03C55.1343 27.0167 55.1343 26.9967 55.1343 26.97C55.141 26.9433 55.1443 26.9267 55.1443 26.92C55.1443 26.8467 55.1176 26.8033 55.0643 26.79C55.011 26.7767 54.8843 26.77 54.6843 26.77C54.2843 26.77 53.831 26.92 53.3243 27.22C52.991 27.4133 52.6476 27.7167 52.2943 28.13C51.941 28.5367 51.721 28.88 51.6343 29.16C51.5876 29.32 51.5643 29.47 51.5643 29.61C51.5643 29.9633 51.6643 30.2867 51.8643 30.58C52.171 31.0267 52.6776 31.25 53.3843 31.25C53.571 31.25 53.6976 31.2433 53.7643 31.23C53.8376 31.2167 53.941 31.1767 54.0743 31.11C54.4076 30.95 54.6676 30.76 54.8543 30.54C55.0476 30.3133 55.2443 29.97 55.4443 29.51C55.6043 29.1433 55.7143 28.93 55.7743 28.87C55.821 28.8233 55.9576 28.7767 56.1843 28.73C56.3243 28.6967 56.431 28.68 56.5043 28.68C56.551 28.68 56.5876 28.6933 56.6143 28.72C56.661 28.7667 56.7076 28.79 56.7543 28.79C56.841 28.79 56.8843 28.8767 56.8843 29.05C56.8843 29.0833 56.8776 29.1467 56.8643 29.24C56.8243 29.46 56.6776 29.8367 56.4243 30.37C56.1776 30.9033 55.971 31.2833 55.8043 31.51C55.5576 31.8433 55.2276 32.1067 54.8143 32.3C54.4076 32.5 53.9576 32.6133 53.4643 32.64C53.4443 32.64 53.411 32.64 53.3643 32.64C53.3243 32.6467 53.2943 32.65 53.2743 32.65C52.4943 32.65 51.8143 32.3467 51.2343 31.74C51.1343 31.6333 51.0043 31.44 50.8443 31.16C50.6843 30.88 50.5776 30.6567 50.5243 30.49C50.451 30.27 50.4143 30.0167 50.4143 29.73C50.4143 28.9633 50.6976 28.2067 51.2643 27.46C51.951 26.5533 52.8876 25.99 54.0743 25.77ZM60.5587 25.77C60.6587 25.75 60.802 25.74 60.9887 25.74H61.0887C61.3553 25.7467 61.592 25.81 61.7987 25.93C62.0053 26.05 62.132 26.19 62.1787 26.35C62.2053 26.4367 62.2187 26.54 62.2187 26.66C62.2187 26.98 62.122 27.2767 61.9287 27.55C61.742 27.8167 61.5287 27.95 61.2887 27.95H61.1187L61.2687 27.78C61.4687 27.5533 61.5853 27.3033 61.6187 27.03C61.6187 27.0167 61.6187 26.9967 61.6187 26.97C61.6253 26.9433 61.6287 26.9267 61.6287 26.92C61.6287 26.8467 61.602 26.8033 61.5487 26.79C61.4953 26.7767 61.3687 26.77 61.1687 26.77C60.7687 26.77 60.3153 26.92 59.8087 27.22C59.4753 27.4133 59.132 27.7167 58.7787 28.13C58.4253 28.5367 58.2053 28.88 58.1187 29.16C58.072 29.32 58.0487 29.47 58.0487 29.61C58.0487 29.9633 58.1487 30.2867 58.3487 30.58C58.6553 31.0267 59.162 31.25 59.8687 31.25C60.0553 31.25 60.182 31.2433 60.2487 31.23C60.322 31.2167 60.4253 31.1767 60.5587 31.11C60.892 30.95 61.152 30.76 61.3387 30.54C61.532 30.3133 61.7287 29.97 61.9287 29.51C62.0887 29.1433 62.1987 28.93 62.2587 28.87C62.3053 28.8233 62.442 28.7767 62.6687 28.73C62.8087 28.6967 62.9153 28.68 62.9887 28.68C63.0353 28.68 63.072 28.6933 63.0987 28.72C63.1453 28.7667 63.192 28.79 63.2387 28.79C63.3253 28.79 63.3687 28.8767 63.3687 29.05C63.3687 29.0833 63.362 29.1467 63.3487 29.24C63.3087 29.46 63.162 29.8367 62.9087 30.37C62.662 30.9033 62.4553 31.2833 62.2887 31.51C62.042 31.8433 61.712 32.1067 61.2987 32.3C60.892 32.5 60.442 32.6133 59.9487 32.64C59.9287 32.64 59.8953 32.64 59.8487 32.64C59.8087 32.6467 59.7787 32.65 59.7587 32.65C58.9787 32.65 58.2987 32.3467 57.7187 31.74C57.6187 31.6333 57.4887 31.44 57.3287 31.16C57.1687 30.88 57.062 30.6567 57.0087 30.49C56.9353 30.27 56.8987 30.0167 56.8987 29.73C56.8987 28.9633 57.182 28.2067 57.7487 27.46C58.4353 26.5533 59.372 25.99 60.5587 25.77ZM63.453 26.38C63.493 26.34 63.5497 26.32 63.623 26.32C63.7097 26.32 63.7797 26.35 63.833 26.41C63.8997 26.4967 63.9964 26.7333 64.123 27.12C64.2697 27.5333 64.3464 27.74 64.353 27.74C64.3597 27.74 64.3897 27.6733 64.443 27.54C64.4964 27.4067 64.5697 27.2567 64.663 27.09C64.763 26.9167 64.863 26.7933 64.963 26.72C65.063 26.6533 65.2264 26.59 65.453 26.53C65.6797 26.47 65.8764 26.44 66.043 26.44C66.2097 26.44 66.3797 26.4833 66.553 26.57C66.793 26.69 66.983 26.8433 67.123 27.03L67.233 27.19L67.283 27.09C67.3564 26.97 67.5497 26.8733 67.863 26.8C68.0564 26.76 68.203 26.74 68.303 26.74C68.4164 26.74 68.5364 26.7733 68.663 26.84C68.803 26.92 68.903 26.99 68.963 27.05C69.023 27.1033 69.0964 27.2067 69.183 27.36C69.5097 27.9333 69.783 28.8567 70.003 30.13C70.0897 30.6033 70.133 30.9467 70.133 31.16C70.133 31.2933 70.1097 31.4067 70.063 31.5C70.003 31.6533 69.9664 31.7467 69.953 31.78C69.873 32.0067 69.7697 32.12 69.643 32.12C69.483 32.12 69.313 31.9533 69.133 31.62C69.053 31.48 68.9964 31.35 68.963 31.23C68.9297 31.1033 68.8764 30.82 68.803 30.38C68.643 29.4667 68.4597 28.76 68.253 28.26L68.203 28.14L68.163 28.26C68.1297 28.3467 68.113 28.8667 68.113 29.82C68.113 30.7667 68.093 31.27 68.053 31.33C68.013 31.3967 67.9764 31.4967 67.943 31.63C67.8697 31.8633 67.7697 31.98 67.643 31.98C67.5964 31.98 67.5097 31.9333 67.383 31.84C67.263 31.74 67.203 31.6733 67.203 31.64C67.203 31.6133 67.173 31.5467 67.113 31.44C66.9997 31.2533 66.8964 30.9267 66.803 30.46C66.523 29.0067 66.3397 28.1967 66.253 28.03C66.1864 27.8967 66.083 27.83 65.943 27.83C65.9097 27.83 65.8864 27.8333 65.873 27.84C65.813 27.8533 65.733 27.9067 65.633 28C65.533 28.0867 65.4864 28.1467 65.493 28.18C65.493 28.2267 65.4764 28.34 65.443 28.52C65.403 28.72 65.383 29.2033 65.383 29.97C65.383 30.2167 65.3897 30.6067 65.403 31.14C65.4097 31.2467 65.413 31.3667 65.413 31.5C65.413 31.66 65.3764 31.8267 65.303 32C65.1697 32.3267 65.043 32.49 64.923 32.49C64.8097 32.49 64.6764 32.3767 64.523 32.15C64.3697 31.9233 64.2564 31.67 64.183 31.39C64.0564 30.9167 63.8897 30.07 63.683 28.85C63.483 27.6233 63.383 26.8667 63.383 26.58C63.383 26.48 63.4064 26.4133 63.453 26.38ZM74.0109 29.77C73.8109 29.7367 73.5142 29.72 73.1209 29.72C72.8009 29.72 72.5342 29.7333 72.3209 29.76C72.2075 29.78 72.0775 29.8233 71.9309 29.89L71.7309 29.99L71.8909 30.26C72.0109 30.46 72.1775 30.6667 72.3909 30.88C72.6042 31.1067 72.8109 31.25 73.0109 31.31C73.1709 31.3633 73.3242 31.39 73.4709 31.39C73.6309 31.39 73.8075 31.34 74.0009 31.24C74.2475 31.1133 74.4475 30.9567 74.6009 30.77C74.7542 30.5767 74.8309 30.3967 74.8309 30.23C74.8309 30.1367 74.8175 30.0767 74.7909 30.05C74.7709 30.0167 74.6975 29.9767 74.5709 29.93C74.3775 29.8567 74.1909 29.8033 74.0109 29.77ZM72.1309 27.09C72.0975 27.0833 72.0575 27.08 72.0109 27.08C71.9642 27.0733 71.9142 27.0667 71.8609 27.06C71.8075 27.0533 71.7709 27.05 71.7509 27.05H71.6509C71.1842 27.05 70.9509 27.08 70.9509 27.14C70.9509 27.22 70.9909 27.4667 71.0709 27.88C71.1509 28.2867 71.2042 28.51 71.2309 28.55C71.2575 28.5833 71.3242 28.5833 71.4309 28.55C71.5309 28.5167 71.7042 28.4233 71.9509 28.27C72.2042 28.1167 72.3875 27.9867 72.5009 27.88C72.6142 27.78 72.7142 27.6767 72.8009 27.57C72.8942 27.4567 72.9409 27.38 72.9409 27.34L72.9309 27.32C72.9042 27.2933 72.7942 27.2533 72.6009 27.2C72.4075 27.14 72.2509 27.1033 72.1309 27.09ZM71.2709 25.66H71.3509C71.4042 25.6533 71.4542 25.65 71.5009 25.65C71.5342 25.65 71.5975 25.6533 71.6909 25.66C71.7842 25.66 71.8542 25.66 71.9009 25.66C72.2075 25.6733 72.4642 25.7067 72.6709 25.76C72.8775 25.8067 73.1142 25.8933 73.3809 26.02C73.7075 26.1867 73.9275 26.3433 74.0409 26.49C74.1542 26.63 74.2109 26.83 74.2109 27.09C74.2109 27.4033 74.1342 27.7267 73.9809 28.06C73.9075 28.2133 73.8775 28.2967 73.8909 28.31L74.2309 28.39C74.6642 28.4833 75.0409 28.6367 75.3609 28.85C75.6809 29.0633 75.8775 29.3 75.9509 29.56C75.9909 29.7 76.0109 29.8767 76.0109 30.09C76.0109 30.31 75.9909 30.5 75.9509 30.66C75.8975 30.8867 75.8042 31.1233 75.6709 31.37C75.5375 31.6167 75.4042 31.8067 75.2709 31.94C75.0642 32.1467 74.8075 32.31 74.5009 32.43C74.2009 32.55 73.8942 32.61 73.5809 32.61C73.0209 32.61 72.5009 32.39 72.0209 31.95C71.5409 31.5033 71.1442 30.8367 70.8309 29.95C70.6842 29.5433 70.6009 29.3133 70.5809 29.26C70.5409 29.14 70.5309 29.0533 70.5509 29C70.5575 28.9867 70.5609 28.95 70.5609 28.89C70.5609 28.7767 70.5509 28.6467 70.5309 28.5C70.5042 28.32 70.4775 27.9833 70.4509 27.49C70.4375 27.2033 70.4209 27.0167 70.4009 26.93C70.3875 26.8433 70.3475 26.73 70.2809 26.59C70.1875 26.4033 70.1409 26.2733 70.1409 26.2C70.1409 26.1467 70.1542 26.0933 70.1809 26.04C70.2475 25.9 70.6109 25.7733 71.2709 25.66ZM80.7998 27.44C80.6198 27.36 80.3764 27.32 80.0698 27.32C79.8164 27.32 79.5731 27.3533 79.3398 27.42C78.9798 27.5333 78.6098 27.7033 78.2298 27.93C77.9831 28.0833 77.7998 28.1667 77.6798 28.18C77.6064 28.1933 77.5498 28.2167 77.5098 28.25C77.4698 28.2833 77.4131 28.3567 77.3398 28.47C77.0331 28.9367 76.8798 29.3133 76.8798 29.6C76.8798 29.8267 76.9764 30.0433 77.1698 30.25C77.3498 30.43 77.6564 30.52 78.0898 30.52C78.3164 30.52 78.5231 30.49 78.7098 30.43C79.3164 30.2233 79.8298 29.9 80.2498 29.46C80.6764 29.0133 80.9364 28.5267 81.0298 28C81.0498 27.9 81.0598 27.82 81.0598 27.76C81.0598 27.6267 80.9731 27.52 80.7998 27.44ZM79.6698 25.95C79.8564 25.9167 80.0231 25.9 80.1698 25.9C80.5764 25.9 80.9798 26.01 81.3798 26.23C81.8198 26.4767 82.0898 26.8233 82.1898 27.27C82.2164 27.3967 82.2298 27.55 82.2298 27.73C82.2298 28.2167 82.1098 28.73 81.8698 29.27C81.6364 29.8033 81.3298 30.2467 80.9498 30.6C80.2031 31.3067 79.3131 31.68 78.2798 31.72C78.2531 31.72 78.2131 31.7233 78.1598 31.73C78.1131 31.73 78.0798 31.73 78.0598 31.73C77.6064 31.73 77.2264 31.6133 76.9198 31.38C76.6264 31.1667 76.3931 30.88 76.2198 30.52C76.0864 30.24 76.0198 29.9933 76.0198 29.78C76.0198 29.6133 76.0531 29.4333 76.1198 29.24C76.2598 28.84 76.4698 28.4667 76.7498 28.12C76.9298 27.9067 77.0364 27.7367 77.0698 27.61C77.1498 27.3367 77.2864 27.1133 77.4798 26.94C78.0531 26.4333 78.7831 26.1033 79.6698 25.95Z" fill="white"/>
<path d="M26.157 5.96473C25.5137 4.72513 25.6847 3.19208 26.7278 2.15773C28.1706 0.727412 30.809 0.922779 32.781 0.0721161C33.3911 -0.191051 34.0631 0.302877 33.9953 0.957044C33.6752 4.043 32.8913 5.95318 31.8086 7.03911C31.1932 7.65636 30.3156 7.99005 29.4174 7.9688C28.9953 7.95884 28.5688 7.87165 28.1628 7.71546L11.0329 24.8455C10.7735 25.1048 10.4336 25.2344 10.0937 25.2344C9.75388 25.2344 9.41394 25.1048 9.15456 24.8455C8.63593 24.3268 8.63593 23.4858 9.15456 22.9672L26.157 5.96473ZM32.7761 10.7295C32.5037 10.0485 31.7309 9.71714 31.0497 9.98947C30.3687 10.2619 30.0374 11.0348 30.3097 11.7158C30.9959 13.4314 31.3437 15.2093 31.3437 17C31.3437 19.3975 29.7183 19.6563 29.0195 19.6563C28.0255 19.6563 27.5473 19.4102 26.8853 19.0695C26.1286 18.68 25.1867 18.1953 23.5742 18.1953C22.0193 18.1953 20.5922 18.7538 19.5558 19.7678C18.5071 20.7938 17.9297 22.2164 17.9297 23.7735C17.9297 25.4341 18.4754 26.3379 18.9139 27.0642C19.281 27.6721 19.5234 28.0737 19.5234 29.0195C19.5234 29.3825 19.4604 30.0694 19.0381 30.5922C18.6353 31.0909 17.9496 31.3438 17 31.3438C9.09081 31.3438 2.65625 24.9092 2.65625 17C2.65625 9.09086 9.09081 2.65631 17 2.65631C18.5166 2.65631 20.1122 2.94425 21.7429 3.51215C22.4357 3.75327 23.1927 3.38738 23.434 2.69469C23.6752 2.00194 23.3092 1.24485 22.6165 1.00359C20.7043 0.337741 18.8147 6.54968e-05 17 6.54968e-05C12.4591 6.54968e-05 8.19008 1.76839 4.97914 4.9792C1.76833 8.19013 0 12.4592 0 17C0 21.5409 1.76833 25.8099 4.97914 29.0209C8.19008 32.2317 12.4591 34 17 34C19.2316 34 20.4638 33.0544 21.1045 32.2612C21.7978 31.4028 22.1797 30.2515 22.1797 29.0195C22.1797 27.334 21.6298 26.4231 21.1878 25.6913C20.8253 25.091 20.5859 24.6944 20.5859 23.7735C20.5859 22.0531 21.8148 20.8516 23.5742 20.8516C24.5433 20.8516 25.0159 21.0948 25.6699 21.4313C26.4327 21.824 27.3821 22.3125 29.0195 22.3125C29.7311 22.3125 31.1021 22.1612 32.2891 21.1478C33.0696 20.4814 34 19.2209 34 17C34 14.8699 33.5883 12.7602 32.7761 10.7295ZM5.3125 17.4649C5.3125 18.5634 6.20619 19.4571 7.30468 19.4571C8.40317 19.4571 9.29687 18.5634 9.29687 17.4649C9.29687 16.3664 8.40317 15.4727 7.30468 15.4727C6.20619 15.4727 5.3125 16.3664 5.3125 17.4649ZM18.8594 7.30474C18.8594 6.20625 17.9657 5.31256 16.8672 5.31256C15.7687 5.31256 14.875 6.20625 14.875 7.30474C14.875 8.40323 15.7687 9.29692 16.8672 9.29692C17.9657 9.29692 18.8594 8.40323 18.8594 7.30474ZM11.2376 11.9016C12.0147 11.1245 12.0147 9.86005 11.2376 9.0829L11.2375 9.08283C10.4604 8.30575 9.19586 8.30575 8.41878 9.0829C7.64169 9.85998 7.64169 11.1245 8.41885 11.9016C8.80732 12.2902 9.31772 12.4844 9.82812 12.4844C10.3386 12.4844 10.849 12.2901 11.2376 11.9016Z" fill="#8EFB21"/>
</svg>
