<svg width="24" height="19" viewBox="0 0 24 19" fill="none" xmlns="http://www.w3.org/2000/svg">
<path d="M14.2704 12.4419C15.7323 11.8473 16.8861 11.0379 17.7315 10.0134C18.5772 8.98913 19 7.87369 19 6.66704C19 5.46034 18.5772 4.34495 17.7315 3.3205C16.8861 2.29619 15.7323 1.48669 14.2704 0.891912C12.8085 0.297228 11.2185 0 9.50005 0C7.78177 0 6.19173 0.29741 4.72972 0.892094C3.26791 1.48678 2.11412 2.29628 1.26859 3.32063C0.422881 4.34495 0 5.46029 0 6.66704C0 7.69997 0.319701 8.67265 0.958347 9.58399C1.59699 10.4955 2.47419 11.2639 3.58964 11.8888C3.49974 12.0973 3.40753 12.2881 3.31305 12.4619C3.21852 12.6355 3.10617 12.8025 2.97562 12.9632C2.84517 13.124 2.74407 13.2497 2.67204 13.3406C2.60005 13.4317 2.48312 13.5599 2.32114 13.7247C2.15912 13.8897 2.05561 13.9982 2.01075 14.0501C2.01075 14.0414 1.99265 14.0611 1.95673 14.1088C1.92066 14.1566 1.90043 14.1781 1.8959 14.1741C1.89145 14.1694 1.8734 14.1911 1.84197 14.2388C1.81049 14.2866 1.7947 14.3105 1.7947 14.3105L1.76091 14.3754C1.74748 14.4013 1.73841 14.4273 1.73397 14.4535C1.72943 14.4793 1.72716 14.5078 1.72716 14.538C1.72716 14.5683 1.7316 14.5964 1.74068 14.6226C1.75878 14.7353 1.81049 14.8263 1.8959 14.8961C1.9814 14.9654 2.07347 15 2.17259 15H2.21309C2.66282 14.9392 3.04973 14.8698 3.37355 14.7916C4.75898 14.4444 6.00957 13.8887 7.12507 13.1249C7.93463 13.2638 8.72641 13.3332 9.50005 13.3332C11.2183 13.3338 12.8086 13.0366 14.2704 12.4419ZM6.72034 11.3549L6.1265 11.7583C5.87458 11.9231 5.59586 12.0927 5.28991 12.2664L5.76232 11.1724L4.45336 10.4432C3.58955 9.95725 2.91942 9.38428 2.44261 8.72451C1.96576 8.06479 1.72744 7.37898 1.72744 6.66708C1.72744 5.78151 2.0807 4.95249 2.78684 4.17989C3.49289 3.40729 4.44429 2.79532 5.6408 2.34375C6.83723 1.89246 8.12373 1.66661 9.50014 1.66661C10.8765 1.66661 12.1632 1.89246 13.3595 2.34375C14.5559 2.79527 15.5073 3.40729 16.2138 4.17989C16.9199 4.95245 17.2729 5.78146 17.2729 6.66708C17.2729 7.55252 16.9199 8.38149 16.2138 9.15409C15.5074 9.92692 14.556 10.5388 13.3595 10.9901C12.1632 11.4415 10.8767 11.6672 9.50014 11.6672C8.82557 11.6672 8.13735 11.6063 7.43555 11.4849L6.72034 11.3549Z" fill="#8EFB21"/>
<path d="M23.034 13.4485C23.6781 12.5176 24 11.5184 24 10.4497C24 9.35441 23.6598 8.33021 22.9798 7.37754C22.2994 6.42491 21.3741 5.63224 20.2042 5C20.4126 5.6678 20.5169 6.34454 20.5169 7.03035C20.5169 8.22349 20.2135 9.35441 19.6053 10.4231C18.9977 11.4915 18.1269 12.4353 16.9931 13.2547C15.9409 14.0027 14.7436 14.5769 13.4011 14.9777C12.059 15.3783 10.6575 15.5788 9.19717 15.5788C8.92516 15.5788 8.52601 15.5612 8 15.5256C9.82305 16.7008 11.9637 17.2887 14.4217 17.2887C15.2018 17.2887 15.9999 17.2173 16.8163 17.0748C17.941 17.8587 19.2019 18.4283 20.5986 18.7847C20.9252 18.8651 21.3152 18.9362 21.7687 18.9985C21.8775 19.0076 21.9775 18.9762 22.0682 18.9051C22.1588 18.8337 22.2179 18.736 22.2449 18.6115C22.2407 18.558 22.2449 18.5287 22.2586 18.5244C22.272 18.5202 22.2697 18.4911 22.2518 18.4378C22.2338 18.3843 22.2247 18.3576 22.2247 18.3576L22.1908 18.2909C22.1813 18.2733 22.166 18.2487 22.1432 18.2176C22.1205 18.1867 22.1024 18.1643 22.0887 18.1509C22.0753 18.1376 22.0551 18.1152 22.0277 18.0842C22.0006 18.0534 21.9824 18.0332 21.9732 18.0242C21.9279 17.9707 21.8236 17.8595 21.6604 17.6902C21.497 17.5212 21.3793 17.3899 21.3067 17.2964C21.2342 17.2029 21.1321 17.0738 21.0006 16.9089C20.8692 16.7443 20.7557 16.5729 20.6604 16.3947C20.5652 16.2167 20.4722 16.0207 20.3815 15.8071C21.5059 15.1654 22.3904 14.3796 23.034 13.4485Z" fill="#8EFB21"/>
</svg>
