<svg width="23" height="20" viewBox="0 0 23 20" fill="none" xmlns="http://www.w3.org/2000/svg">
<path d="M16.4785 0.000445147C14.5598 -0.00980841 12.7359 0.832822 11.5 2.30042C10.2718 0.822791 8.4428 -0.0222353 6.52148 0.000445147C2.91975 0.000445147 0 2.9202 0 6.52193C0 12.6941 10.7721 18.7206 11.2089 18.9536C11.3851 19.0713 11.6149 19.0713 11.7911 18.9536C12.2279 18.7206 23 12.7814 23 6.52193C23 2.9202 20.0802 0.000445147 16.4785 0.000445147ZM11.5 17.789C9.81137 16.7992 1.16456 11.5296 1.16456 6.52193C1.16456 3.56339 3.56294 1.16495 6.52154 1.16495C8.3333 1.14115 10.0288 2.055 11.0051 3.58139C11.2033 3.85472 11.5856 3.91563 11.859 3.71736C11.9112 3.67946 11.9571 3.6336 11.9949 3.58139C13.614 1.10521 16.934 0.41042 19.4101 2.02953C20.926 3.02073 21.8384 4.71073 21.8354 6.52187C21.8354 11.5877 13.1886 16.8283 11.5 17.789Z" fill="#8EFB21"/>
</svg>
